<svg xmlns="http://www.w3.org/2000/svg" viewBox="0 0 640 420" role="img" aria-labelledby="education-title education-desc">
  <title id="education-title">Academic education</title>
  <desc id="education-desc">A graduation cap and diploma with subtle academic orbit lines.</desc>
  <!-- %%%%26.04.2026%%%%%%% lightweight academic illustration -->
  <defs>
    <linearGradient id="education-bg" x1="40" y1="25" x2="600" y2="395" gradientUnits="userSpaceOnUse">
      <stop stop-color="#f8fcfd"/>
      <stop offset=".62" stop-color="#edf7fa"/>
      <stop offset="1" stop-color="#dff3fc"/>
    </linearGradient>
    <radialGradient id="education-glow" cx="0" cy="0" r="1" gradientTransform="translate(510 90) rotate(130) scale(330)">
      <stop stop-color="#149ddd" stop-opacity=".18"/>
      <stop offset="1" stop-color="#78dcf7" stop-opacity="0"/>
    </radialGradient>
    <linearGradient id="education-gold" x1="164" y1="109" x2="475" y2="325" gradientUnits="userSpaceOnUse">
      <stop stop-color="#ffe19a"/>
      <stop offset="1" stop-color="#d7a83a"/>
    </linearGradient>
    <pattern id="education-grid" width="42" height="42" patternUnits="userSpaceOnUse">
      <path d="M42 0H0V42" fill="none" stroke="#173b6c" stroke-opacity=".08"/>
    </pattern>
  </defs>
  <rect width="640" height="420" rx="30" fill="url(#education-bg)"/>
  <rect width="640" height="420" rx="30" fill="url(#education-grid)"/>
  <circle cx="507" cy="92" r="220" fill="url(#education-glow)"/>
  <ellipse cx="320" cy="220" rx="224" ry="132" fill="none" stroke="#149ddd" stroke-opacity=".2" stroke-width="3"/>
  <ellipse cx="320" cy="220" rx="169" ry="194" fill="none" stroke="#149ddd" stroke-opacity=".13" stroke-width="3" transform="rotate(62 320 220)"/>
  <path d="M146 174L320 92L494 174L320 256L146 174Z" fill="#173b6c"/>
  <path d="M217 208V272C277 315 363 315 423 272V208L320 256L217 208Z" fill="#176b92"/>
  <path d="M320 174L468 208V279" fill="none" stroke="url(#education-gold)" stroke-linecap="round" stroke-width="10"/>
  <circle cx="468" cy="292" r="17" fill="#f0c45d"/>
  <rect x="237" y="302" width="166" height="48" rx="24" fill="#f8fcff"/>
  <path d="M274 326H367" stroke="#7c9cac" stroke-linecap="round" stroke-width="8"/>
  <circle cx="239" cy="326" r="24" fill="url(#education-gold)"/>
  <!-- %%%%26.04.2026%%%%%%% lightweight academic illustration -->
</svg>
