<svg xmlns="http://www.w3.org/2000/svg" viewBox="0 0 640 420" role="img" aria-labelledby="publication-title publication-desc">
  <title id="publication-title">Research publications</title>
  <desc id="publication-desc">An open academic journal with a research curve and data points.</desc>
  <!-- %%%%26.04.2026%%%%%%% lightweight academic illustration -->
  <defs>
    <linearGradient id="publication-bg" x1="40" y1="25" x2="600" y2="395" gradientUnits="userSpaceOnUse">
      <stop stop-color="#f8fcfd"/>
      <stop offset=".62" stop-color="#edf7fa"/>
      <stop offset="1" stop-color="#dff3fc"/>
    </linearGradient>
    <radialGradient id="publication-glow" cx="0" cy="0" r="1" gradientTransform="translate(520 88) rotate(130) scale(330)">
      <stop stop-color="#149ddd" stop-opacity=".18"/>
      <stop offset="1" stop-color="#78dcf7" stop-opacity="0"/>
    </radialGradient>
    <linearGradient id="publication-gold" x1="176" y1="113" x2="443" y2="315" gradientUnits="userSpaceOnUse">
      <stop stop-color="#ffe19a"/>
      <stop offset="1" stop-color="#d7a83a"/>
    </linearGradient>
    <pattern id="publication-grid" width="42" height="42" patternUnits="userSpaceOnUse">
      <path d="M42 0H0V42" fill="none" stroke="#173b6c" stroke-opacity=".08"/>
    </pattern>
  </defs>
  <rect width="640" height="420" rx="30" fill="url(#publication-bg)"/>
  <rect width="640" height="420" rx="30" fill="url(#publication-grid)"/>
  <circle cx="507" cy="92" r="220" fill="url(#publication-glow)"/>
  <path d="M74 340C184 260 238 370 359 292C445 237 500 247 576 166" fill="none" stroke="#149ddd" stroke-opacity=".2" stroke-width="2"/>
  <path d="M319 122C276 96 216 91 166 108V299C217 280 273 285 319 313V122Z" fill="#fff" stroke="#173b6c" stroke-linejoin="round" stroke-width="6"/>
  <path d="M321 122C364 96 424 91 474 108V299C423 280 367 285 321 313V122Z" fill="#e8f4f9" stroke="#173b6c" stroke-linejoin="round" stroke-width="6"/>
  <path d="M320 123V313" stroke="#173b6c" stroke-width="5"/>
  <path d="M190 150H286M190 177H276M190 204H253M190 231H281" stroke="#176b92" stroke-linecap="round" stroke-width="9"/>
  <path d="M354 239L381 208L409 218L447 159" fill="none" stroke="url(#publication-gold)" stroke-linecap="round" stroke-linejoin="round" stroke-width="9"/>
  <circle cx="354" cy="239" r="8" fill="#ffe19a"/>
  <circle cx="381" cy="208" r="8" fill="#f4ca6b"/>
  <circle cx="409" cy="218" r="8" fill="#e9ba51"/>
  <circle cx="447" cy="159" r="8" fill="#d7a83a"/>
  <path d="M152 324H488" stroke="#176b92" stroke-linecap="round" stroke-opacity=".28" stroke-width="4"/>
  <!-- %%%%26.04.2026%%%%%%% lightweight academic illustration -->
</svg>
